<svg version="1.2" xmlns="http://www.w3.org/2000/svg" viewBox="0 0 200 185" width="200" height="185">
	<style>
		.s0 { fill: #ffffff } 
	</style>
	<path fill-rule="evenodd" class="s0" d="m196.6 42.2c3.2 4.6 4 9.7 2.2 15.5l-33 108.6c-1.5 5.1-4.6 9.4-9.2 12.9-4.6 3.5-9.5 5.2-14.7 5.2h-110.7c-6.1 0-12.1-2.1-17.8-6.4-5.7-4.3-9.7-9.6-11.9-15.8-1.9-5.3-2-10.4-0.2-15.2 0-0.3 0.2-1.4 0.4-3.2 0.3-1.8 0.4-3.3 0.5-4.4 0-0.7-0.1-1.5-0.4-2.6-0.4-1-0.5-1.8-0.4-2.3 0.2-0.9 0.5-1.7 1-2.5 0.5-0.8 1.2-1.7 2-2.8 0.9-1.1 1.5-2 2-2.8 1.8-3.1 3.6-6.7 5.4-11 1.8-4.3 3-8 3.6-11 0.3-0.8 0.3-2 0.1-3.6-0.2-1.6-0.3-2.8-0.1-3.4 0.2-0.9 0.9-2 2-3.4 1.1-1.4 1.8-2.3 2-2.8 1.6-2.8 3.3-6.5 5-11q2.55-6.75 3-10.8c0.1-0.7 0-2-0.3-3.8-0.2-1.9-0.2-3 0.1-3.4 0.3-1.1 1.2-2.3 2.6-3.7 1.4-1.4 2.3-2.3 2.6-2.7 1.5-2 3.2-5.4 5.1-10.1 1.9-4.7 3-8.6 3.3-11.6 0-0.7-0.1-1.7-0.4-3.1-0.3-1.4-0.4-2.5-0.2-3.2 0.2-0.7 0.5-1.4 1.1-2.2 0.6-0.8 1.4-1.8 2.2-2.8 0.8-1 1.5-1.9 2-2.5 0.7-1 1.3-2.2 2-3.7q1.05-2.25 1.8-4.2c0.5-1.3 1.1-2.7 1.9-4.3 0.8-1.6 1.5-2.8 2.3-3.8 0.8-1 1.9-1.9 3.2-2.8 1.3-0.9 2.7-1.3 4.3-1.4q2.4-0.15 5.7 0.6l-0.1 0.4c3-0.7 5.1-1.1 6.1-1.1h91.3c5.9 0 10.5 2.3 13.7 6.8 3.2 4.5 4 9.7 2.2 15.6l-32.9 108.6c-2.9 9.5-5.8 15.7-8.6 18.4-2.8 2.7-8 4.1-15.4 4.1h-104.2c-2.2 0-3.7 0.6-4.6 1.8-0.9 1.3-0.9 3-0.1 5.2 2 5.6 7.7 8.4 17.3 8.4h110.7c2.3 0 4.5-0.7 6.7-1.9 2.2-1.3 3.6-2.9 4.2-5l35.9-118.4c0.6-1.7 0.8-4 0.6-6.8 3.1 1.2 5.4 2.9 7.1 5.4zm-119.79 57.85l5.78-21.31 11.69 0.1q11.56 0.11 18.54-3.85 7.03-3.96 9.16-11.81 2.11-7.78-2.74-11.85-4.79-4.1-16.34-4.21l-21-0.19-14.39 53.04zm33.82-44.35q2.84 2.62 1.55 7.38-1.31 4.8-5.55 7.36-4.25 2.56-10.74 2.5l-11.7-0.11 5.41-19.93 11.7 0.11q6.49 0.06 9.33 2.69z"/>
</svg>